<svg width="115" height="72" viewBox="0 0 115 72" fill="none" xmlns="http://www.w3.org/2000/svg">
<rect x="12.3127" width="109" height="36" rx="18" transform="rotate(20 12.3127 0)" fill="#F6F7FE"/>
<path d="M21.7644 22.9913L20.641 22.2404L22.8599 17.723L27.9024 19.5584L27.4255 20.8688L23.6676 19.5011L22.576 21.7008C22.7528 21.6681 22.9845 21.6579 23.271 21.67C23.5591 21.6779 23.8681 21.7419 24.1978 21.8619C24.6389 22.0224 25.0064 22.2386 25.3003 22.5105C25.6 22.7796 25.822 23.0956 25.9664 23.4586C26.1123 23.8172 26.1786 24.2147 26.1652 24.6512C26.1534 25.0834 26.0594 25.5414 25.8833 26.0254C25.7259 26.4579 25.5143 26.8392 25.2487 27.1693C24.9873 27.5009 24.6781 27.7643 24.321 27.9592C23.9639 28.1542 23.563 28.2629 23.1184 28.2853C22.6796 28.3051 22.1989 28.2199 21.6765 28.0297C21.2868 27.8879 20.9323 27.6958 20.6131 27.4535C20.2998 27.2085 20.0423 26.9232 19.8407 26.5977C19.6407 26.2678 19.515 25.9069 19.4637 25.5148C19.414 25.1184 19.455 24.6993 19.5868 24.2574L21.1027 24.8092C21.0306 25.1272 21.0198 25.4167 21.0704 25.6776C21.1267 25.9358 21.2439 26.1603 21.4218 26.3511C21.5996 26.5419 21.832 26.6896 22.119 26.794C22.3802 26.8891 22.6214 26.926 22.8425 26.9046C23.0653 26.879 23.2699 26.8031 23.4564 26.677C23.6488 26.5482 23.8178 26.3769 23.9635 26.1632C24.1135 25.9511 24.2407 25.7015 24.3451 25.4146C24.4449 25.1405 24.4997 24.8767 24.5095 24.6233C24.5236 24.3714 24.4903 24.1362 24.4098 23.9177C24.3336 23.7008 24.2069 23.5092 24.0298 23.3429C23.8542 23.1723 23.6294 23.0372 23.3553 22.9374C22.987 22.8034 22.6849 22.754 22.449 22.7894C22.2173 22.8263 21.9891 22.8936 21.7644 22.9913ZM33.6899 28.4812L33.241 29.7145L26.4962 27.2596L26.7838 26.3095L33.1185 21.4568L34.3582 21.9081L32.1787 23.7191L28.506 26.5944L33.6899 28.4812ZM34.7115 22.0367L31.3074 31.3896L29.7593 30.8261L33.1634 21.4732L34.7115 22.0367ZM42.1566 24.7465L38.7524 34.0993L37.1401 33.5125L40.5442 24.1596L42.1566 24.7465ZM44.1274 29.8649L42.1377 35.3315L40.5896 34.768L43.1193 27.8176L44.5775 28.3483L44.1274 29.8649ZM43.2199 31.4988L42.7212 31.31C42.9047 30.8191 43.1377 30.3922 43.4201 30.0294C43.7067 29.6682 44.0237 29.3835 44.3711 29.1752C44.7228 28.9686 45.0966 28.8476 45.4926 28.8123C45.8901 28.7727 46.2966 28.8285 46.712 28.9797C47.046 29.1013 47.3308 29.2583 47.5663 29.4507C47.8076 29.6404 47.9872 29.8731 48.1051 30.1488C48.2273 30.426 48.2798 30.7482 48.2625 31.1154C48.2469 31.4783 48.1525 31.8974 47.9795 32.3727L46.3452 36.8629L44.7907 36.2971L46.4273 31.8005C46.5489 31.4665 46.5955 31.1852 46.5671 30.9566C46.5446 30.7253 46.4561 30.5355 46.3016 30.3871C46.1529 30.236 45.9436 30.1113 45.6738 30.0131C45.4083 29.9165 45.1504 29.8857 44.9 29.9206C44.6497 29.9556 44.4166 30.0429 44.2009 30.1827C43.9894 30.3239 43.7991 30.5069 43.6301 30.7315C43.461 30.9561 43.3243 31.2119 43.2199 31.4988ZM52.5097 36.9751C52.5658 36.8209 52.5779 36.6677 52.546 36.5155C52.5157 36.3589 52.41 36.1895 52.229 36.0073C52.0523 35.8265 51.7697 35.617 51.3812 35.3786C51.0425 35.1632 50.7393 34.9437 50.4715 34.7201C50.2095 34.4938 49.9989 34.2596 49.8397 34.0173C49.6806 33.7751 49.5815 33.5208 49.5427 33.2545C49.5038 32.9882 49.5374 32.7094 49.6434 32.4182C49.7463 32.1355 49.9058 31.8905 50.1219 31.683C50.3381 31.4756 50.5969 31.3176 50.8983 31.209C51.1996 31.1005 51.5355 31.0506 51.9058 31.0592C52.2803 31.0695 52.6731 31.1494 53.0843 31.299C53.6667 31.511 54.1297 31.7911 54.4734 32.1393C54.823 32.4847 55.0483 32.865 55.1494 33.2801C55.2521 33.6909 55.2278 34.104 55.0766 34.5194L53.5285 33.9559C53.5955 33.7718 53.6108 33.5833 53.5742 33.3906C53.5435 33.1951 53.454 33.0146 53.3057 32.8491C53.159 32.6793 52.9465 32.5438 52.6681 32.4424C52.4026 32.3458 52.1665 32.3084 51.9597 32.3301C51.7588 32.3491 51.5913 32.4094 51.4574 32.511C51.3277 32.6141 51.234 32.7449 51.1763 32.9034C51.1343 33.019 51.1175 33.1317 51.126 33.2415C51.1404 33.3486 51.1871 33.4602 51.2661 33.5762C51.3466 33.688 51.4673 33.8095 51.6281 33.9408C51.7931 34.0736 52.0061 34.2214 52.2669 34.3842C52.7574 34.6889 53.1612 34.9983 53.4785 35.3126C53.8015 35.6242 54.016 35.9544 54.1218 36.3033C54.2291 36.6479 54.2072 37.0279 54.056 37.4433C53.9438 37.7517 53.7746 38.0102 53.5483 38.2188C53.3278 38.4247 53.0591 38.5767 52.7422 38.6747C52.4268 38.7684 52.0769 38.8036 51.6926 38.7801C51.3126 38.7582 50.9085 38.6693 50.4803 38.5134C49.8507 38.2843 49.3581 37.9789 49.0023 37.5972C48.6481 37.2113 48.4215 36.8014 48.3223 36.3676C48.229 35.9311 48.2517 35.5223 48.3904 35.1412L49.8871 35.6859C49.7998 35.9791 49.7957 36.237 49.8746 36.4598C49.9595 36.6798 50.0949 36.8673 50.281 37.0223C50.4729 37.1746 50.6845 37.2928 50.9157 37.377C51.1941 37.4783 51.4407 37.5269 51.6556 37.5227C51.8721 37.5141 52.053 37.4636 52.1982 37.371C52.3451 37.2741 52.4489 37.1421 52.5097 36.9751ZM60.4119 34.1116L60.0004 35.2421L56.082 33.8159L56.4934 32.6854L60.4119 34.1116ZM58.2436 31.3946L59.7917 31.958L57.3414 38.6901C57.2635 38.9042 57.2335 39.08 57.2513 39.2174C57.2751 39.3521 57.3356 39.459 57.4329 39.5381C57.5302 39.6172 57.6538 39.684 57.8037 39.7385C57.9107 39.7775 58.0159 39.8085 58.119 39.8315C58.2222 39.8545 58.3061 39.8705 58.3707 39.8795L57.947 41.0637C57.8045 41.0555 57.6421 41.0352 57.4599 41.0029C57.282 40.9721 57.0838 40.9169 56.8654 40.8374C56.51 40.708 56.2178 40.5314 55.9889 40.3074C55.7616 40.0792 55.6231 39.7936 55.5733 39.4505C55.5236 39.1075 55.5853 38.6983 55.7583 38.2229L58.2436 31.3946ZM62.6796 36.4355L60.6315 42.0627L59.0834 41.4992L61.6131 34.5488L63.0906 35.0865L62.6796 36.4355ZM65.3038 35.8412L64.7673 37.2754C64.6793 37.224 64.5812 37.1737 64.473 37.1246C64.369 37.0771 64.2635 37.0338 64.1564 36.9949C63.8909 36.8982 63.6435 36.8518 63.4142 36.8556C63.1864 36.8552 62.9783 36.9007 62.7898 36.9921C62.6072 37.0808 62.4436 37.2105 62.2991 37.3809C62.1546 37.5514 62.0315 37.7564 61.9298 37.9958L61.5672 37.8929C61.7261 37.4561 61.9163 37.067 62.1375 36.7256C62.3588 36.3842 62.6065 36.1034 62.8807 35.8831C63.1591 35.6643 63.4578 35.5233 63.7767 35.4599C64.0999 35.3981 64.4349 35.4303 64.7818 35.5566C64.876 35.5909 64.9735 35.6361 65.0743 35.6922C65.1795 35.7498 65.2559 35.7995 65.3038 35.8412ZM68.5057 43.0736L70.4393 37.7612L71.9938 38.327L69.464 45.2774L67.9994 44.7444L68.5057 43.0736ZM69.2502 41.7078L69.7752 41.8843C69.6053 42.3511 69.3972 42.7628 69.151 43.1193C68.9064 43.4716 68.6241 43.7544 68.3039 43.9677C67.9854 44.1767 67.6295 44.3018 67.2362 44.3429C66.8445 44.3798 66.4153 44.3133 65.9485 44.1434C65.6102 44.0202 65.3176 43.858 65.0708 43.6566C64.824 43.4553 64.6353 43.2144 64.5045 42.934C64.3781 42.6552 64.3192 42.3306 64.3279 41.9604C64.3365 41.5901 64.4243 41.1758 64.591 40.7176L66.2253 36.2275L67.7734 36.7909L66.1345 41.2939C66.0425 41.5466 65.9953 41.7695 65.9929 41.9626C65.9921 42.1515 66.0244 42.316 66.0897 42.4562C66.1551 42.5963 66.2485 42.7128 66.37 42.8055C66.4914 42.8982 66.6292 42.9726 66.7834 43.0287C67.2245 43.1893 67.6025 43.2299 67.9176 43.1505C68.2384 43.0685 68.5061 42.8992 68.7208 42.6426C68.9396 42.3877 69.1161 42.0761 69.2502 41.7078ZM74.2921 45.7835C74.5448 45.8754 74.7897 45.9088 75.0268 45.8836C75.2697 45.8556 75.4861 45.7743 75.6757 45.6396C75.8696 45.5065 76.0159 45.3245 76.1145 45.0937L77.5727 45.6244C77.4004 46.071 77.1188 46.4316 76.7278 46.7064C76.3368 46.9811 75.8896 47.1506 75.3862 47.2147C74.8843 47.2745 74.3764 47.2109 73.8625 47.0238C73.3314 46.8306 72.9017 46.5723 72.5731 46.249C72.2462 45.9215 72.0105 45.5496 71.8662 45.1333C71.7219 44.717 71.6597 44.2749 71.6797 43.8069C71.704 43.3405 71.8034 42.8674 71.978 42.3878L72.0598 42.163C72.2344 41.6833 72.4623 41.2571 72.7435 40.8841C73.0306 40.5085 73.3632 40.2076 73.7413 39.9815C74.1194 39.7554 74.5382 39.6241 74.9977 39.5877C75.4587 39.5469 75.9526 39.6224 76.4793 39.8141C77.036 40.0168 77.4837 40.3058 77.8223 40.6812C78.1625 41.0524 78.3808 41.4786 78.4772 41.9599C78.5795 42.4384 78.5406 42.9383 78.3606 43.4596L76.9024 42.9289C76.9831 42.6673 77.003 42.4126 76.9622 42.165C76.9272 41.9146 76.8296 41.69 76.6692 41.4909C76.5131 41.2935 76.2938 41.1433 76.0111 41.0405C75.6985 40.9267 75.416 40.8966 75.1637 40.9503C74.913 40.9996 74.69 41.1125 74.4949 41.2888C74.3013 41.4608 74.1298 41.6724 73.9802 41.9235C73.8364 42.1719 73.7124 42.4395 73.6079 42.7264L73.5261 42.9513C73.4217 43.2382 73.3439 43.5251 73.2928 43.8121C73.2417 44.099 73.235 44.3706 73.2727 44.6268C73.3162 44.8803 73.4174 45.1087 73.5762 45.3119C73.7366 45.511 73.9752 45.6681 74.2921 45.7835ZM83.6399 42.5659L83.2284 43.6964L79.31 42.2702L79.7215 41.1397L83.6399 42.5659ZM81.4716 39.8489L83.0197 40.4124L80.5695 47.1444C80.4915 47.3585 80.4615 47.5343 80.4794 47.6717C80.5031 47.8064 80.5636 47.9133 80.6609 47.9924C80.7582 48.0715 80.8818 48.1383 81.0317 48.1928C81.1388 48.2318 81.2439 48.2628 81.3471 48.2858C81.4502 48.3088 81.5341 48.3248 81.5988 48.3338L81.175 49.5181C81.0325 49.5098 80.8701 49.4895 80.6879 49.4572C80.51 49.4264 80.3118 49.3712 80.0934 49.2917C79.738 49.1623 79.4458 48.9857 79.217 48.7617C78.9896 48.5335 78.8511 48.2479 78.8014 47.9048C78.7516 47.5618 78.8133 47.1526 78.9863 46.6773L81.4716 39.8489ZM83.0921 46.3894L83.1459 46.2416C83.3283 45.7406 83.5702 45.3024 83.8717 44.9272C84.1747 44.5477 84.5209 44.2493 84.9103 44.0322C85.3056 43.8123 85.7343 43.6871 86.1965 43.6564C86.6645 43.6231 87.1512 43.6984 87.6565 43.8823C88.1661 44.0678 88.5873 44.3229 88.9201 44.6478C89.2588 44.9698 89.5088 45.3421 89.6703 45.7646C89.8333 46.1829 89.9089 46.6347 89.8971 47.1203C89.8868 47.6015 89.7905 48.0926 89.6081 48.5937L89.5544 48.7414C89.372 49.2425 89.1301 49.6806 88.8286 50.0559C88.5271 50.4311 88.1788 50.7287 87.7835 50.9486C87.3898 51.1641 86.9611 51.2894 86.4973 51.3243C86.0352 51.3549 85.5514 51.2783 85.0461 51.0943C84.5365 50.9089 84.1123 50.6551 83.7737 50.333C83.4409 50.0081 83.193 49.6366 83.03 49.2184C82.8685 48.7959 82.7929 48.344 82.8032 47.8628C82.8135 47.3816 82.9098 46.8904 83.0921 46.3894ZM84.694 46.8051L84.6402 46.9528C84.5265 47.2655 84.451 47.5726 84.4139 47.8744C84.3769 48.1761 84.3887 48.4568 84.4493 48.7166C84.51 48.9763 84.6256 49.2051 84.796 49.4029C84.9665 49.6007 85.1995 49.7534 85.495 49.861C85.7819 49.9654 86.0521 49.9959 86.3056 49.9523C86.5634 49.9104 86.799 49.8094 87.0124 49.6494C87.2258 49.4895 87.4153 49.282 87.5808 49.027C87.7507 48.7736 87.8925 48.4906 88.0062 48.178L88.06 48.0302C88.1722 47.7219 88.244 47.4182 88.2752 47.1192C88.3123 46.8175 88.2991 46.5338 88.2358 46.2682C88.1766 46.0042 88.0619 45.7733 87.8914 45.5755C87.7267 45.3749 87.4988 45.2216 87.2076 45.1156C86.9164 45.0097 86.6411 44.9798 86.3818 45.026C86.1283 45.0696 85.8941 45.1735 85.6791 45.3377C85.4642 45.502 85.2739 45.7116 85.1083 45.9665C84.9443 46.2172 84.8062 46.4968 84.694 46.8051ZM93.2178 47.5505L91.1697 53.1776L89.6215 52.6142L92.1513 45.6638L93.6287 46.2015L93.2178 47.5505ZM95.842 46.9561L95.3054 48.3904C95.2175 48.3389 95.1194 48.2887 95.0111 48.2396C94.9072 48.1921 94.8017 48.1488 94.6946 48.1099C94.4291 48.0132 94.1817 47.9668 93.9524 47.9706C93.7246 47.9702 93.5165 48.0157 93.328 48.1071C93.1453 48.1958 92.9818 48.3254 92.8373 48.4959C92.6928 48.6664 92.5697 48.8714 92.468 49.1108L92.1053 49.0079C92.2643 48.5711 92.4544 48.182 92.6757 47.8406C92.897 47.4992 93.1447 47.2184 93.4188 46.9981C93.6973 46.7793 93.996 46.6383 94.3149 46.5749C94.6381 46.5131 94.9731 46.5453 95.32 46.6716C95.4142 46.7059 95.5117 46.751 95.6125 46.8071C95.7176 46.8648 95.7941 46.9145 95.842 46.9561Z" fill="#5A69F2"/>
</svg>
