<svg width="85" height="60" viewBox="0 0 85 60" fill="none" xmlns="http://www.w3.org/2000/svg">
<rect x="12.9963" width="76" height="36" rx="18" transform="rotate(20 12.9963 0)" fill="#FF991F" fill-opacity="0.05"/>
<path d="M24.6152 23.9184L22.232 23.0509L22.647 21.8707L24.7283 22.6283C25.0794 22.7561 25.3958 22.813 25.6773 22.7991C25.9646 22.7824 26.2084 22.699 26.4085 22.5487C26.6103 22.3942 26.7626 22.1756 26.8655 21.893C26.9792 21.5804 27.012 21.3038 26.9638 21.0631C26.9156 20.8225 26.7837 20.612 26.568 20.4317C26.3567 20.2529 26.0604 20.0941 25.6793 19.9554L24.1183 19.3873L21.1818 27.4554L19.5694 26.8686L22.9736 17.5157L26.1469 18.6707C26.6608 18.8577 27.1011 19.0737 27.4678 19.3188C27.8388 19.5653 28.1274 19.845 28.3336 20.1577C28.5458 20.4677 28.6669 20.8076 28.6972 21.1775C28.7317 21.549 28.6695 21.9531 28.5105 22.3899C28.3703 22.7753 28.1496 23.0951 27.8485 23.3493C27.5491 23.5992 27.1828 23.7593 26.7498 23.8296C26.3168 23.9 25.8257 23.857 25.2764 23.7007L24.6152 23.9184ZM23.0061 28.1194L20.1861 27.093L21.3772 26.0789L23.4713 26.8411C23.8354 26.9736 24.1612 27.0243 24.449 26.9932C24.7383 26.9579 24.9818 26.855 25.1797 26.6845C25.3834 26.5113 25.5382 26.2791 25.6442 25.9879C25.7549 25.6838 25.7972 25.401 25.7712 25.1393C25.7467 24.8734 25.6407 24.6384 25.4531 24.4343C25.267 24.2259 24.9877 24.054 24.6152 23.9184L22.8037 23.259L23.2444 22.0882L25.6019 22.9462L25.8067 23.5227C26.3144 23.7269 26.6949 23.9939 26.9483 24.3238C27.2059 24.6552 27.3553 25.0175 27.3965 25.4108C27.4376 25.8041 27.3881 26.1934 27.2478 26.5788C27.0311 27.1741 26.7189 27.6254 26.3112 27.9329C25.9077 28.2419 25.4258 28.4133 24.8655 28.447C24.3068 28.4764 23.687 28.3672 23.0061 28.1194ZM28.6688 26.3322L28.7226 26.1844C28.905 25.6834 29.1469 25.2452 29.4483 24.87C29.7514 24.4905 30.0976 24.1921 30.487 23.975C30.8823 23.7551 31.311 23.6299 31.7732 23.5992C32.2412 23.5659 32.7279 23.6412 33.2332 23.8251C33.7428 24.0106 34.164 24.2657 34.4968 24.5906C34.8355 24.9127 35.0855 25.285 35.247 25.7075C35.41 26.1257 35.4856 26.5775 35.4738 27.0631C35.4635 27.5443 35.3672 28.0355 35.1848 28.5365L35.131 28.6842C34.9487 29.1853 34.7067 29.6234 34.4053 29.9987C34.1038 30.3739 33.7554 30.6715 33.3602 30.8914C32.9665 31.107 32.5378 31.2322 32.074 31.2671C31.6118 31.2977 31.1281 31.2211 30.6228 31.0372C30.1132 30.8517 29.689 30.5979 29.3504 30.2758C29.0176 29.951 28.7697 29.5794 28.6067 29.1612C28.4452 28.7387 28.3696 28.2869 28.3799 27.8056C28.3901 27.3244 28.4864 26.8332 28.6688 26.3322ZM30.2707 26.7479L30.2169 26.8957C30.1031 27.2083 30.0277 27.5155 29.9906 27.8172C29.9535 28.1189 29.9653 28.3997 30.026 28.6594C30.0867 28.9191 30.2022 29.1479 30.3727 29.3457C30.5432 29.5436 30.7762 29.6963 31.0717 29.8038C31.3586 29.9082 31.6288 29.9387 31.8823 29.8952C32.14 29.8532 32.3756 29.7522 32.5891 29.5923C32.8025 29.4323 32.9919 29.2248 33.1575 28.9698C33.3273 28.7164 33.4691 28.4334 33.5829 28.1208L33.6367 27.973C33.7489 27.6647 33.8207 27.361 33.8519 27.062C33.889 26.7603 33.8758 26.4766 33.8124 26.2111C33.7533 25.9471 33.6385 25.7161 33.4681 25.5183C33.3034 25.3177 33.0755 25.1644 32.7843 25.0585C32.4931 24.9525 32.2178 24.9226 31.9585 24.9689C31.705 25.0124 31.4708 25.1163 31.2558 25.2805C31.0408 25.4448 30.8506 25.6544 30.685 25.9094C30.521 26.1601 30.3829 26.4396 30.2707 26.7479ZM36.1331 29.049L36.1869 28.9012C36.3693 28.4002 36.6112 27.962 36.9127 27.5868C37.2157 27.2073 37.5619 26.9089 37.9513 26.6918C38.3466 26.4719 38.7753 26.3467 39.2375 26.316C39.7055 26.2827 40.1922 26.358 40.6975 26.5419C41.2071 26.7274 41.6283 26.9825 41.9611 27.3074C42.2998 27.6295 42.5498 28.0018 42.7113 28.4242C42.8743 28.8425 42.9499 29.2943 42.9381 29.7799C42.9278 30.2611 42.8315 30.7522 42.6491 31.2533L42.5953 31.401C42.413 31.9021 42.1711 32.3402 41.8696 32.7155C41.5681 33.0907 41.2198 33.3883 40.8245 33.6082C40.4308 33.8237 40.0021 33.949 39.5383 33.9839C39.0762 34.0145 38.5924 33.9379 38.0871 33.7539C37.5775 33.5685 37.1533 33.3147 36.8147 32.9926C36.4819 32.6678 36.234 32.2962 36.071 31.878C35.9095 31.4555 35.8339 31.0036 35.8442 30.5224C35.8544 30.0412 35.9508 29.55 36.1331 29.049ZM37.735 29.4647L37.6812 29.6124C37.5675 29.9251 37.492 30.2322 37.4549 30.534C37.4179 30.8357 37.4297 31.1164 37.4903 31.3762C37.551 31.6359 37.6666 31.8647 37.837 32.0625C38.0075 32.2604 38.2405 32.413 38.536 32.5206C38.8229 32.625 39.0931 32.6555 39.3466 32.6119C39.6044 32.57 39.84 32.469 40.0534 32.309C40.2668 32.1491 40.4563 31.9416 40.6218 31.6866C40.7916 31.4332 40.9335 31.1502 41.0472 30.8376L41.101 30.6898C41.2132 30.3815 41.285 30.0778 41.3162 29.7788C41.3533 29.4771 41.3401 29.1934 41.2767 28.9278C41.2176 28.6638 41.1029 28.4329 40.9324 28.2351C40.7677 28.0345 40.5398 27.8812 40.2486 27.7752C39.9574 27.6693 39.6821 27.6394 39.4228 27.6856C39.1693 27.7292 38.9351 27.8331 38.7201 27.9973C38.5051 28.1616 38.3149 28.3712 38.1493 28.6261C37.9853 28.8768 37.8472 29.1564 37.735 29.4647ZM47.8083 25.9728L44.2171 35.8396L42.6625 35.2738L46.2538 25.407L47.8083 25.9728ZM51.0635 30.4603L46.8175 32.7123L44.543 33.8049L44.6152 32.3472L46.4313 31.255L49.1942 29.78L51.0635 30.4603ZM46.9985 36.8519L45.9315 32.7681L47.3031 32.0379L48.7907 37.5043L46.9985 36.8519ZM52.4055 38.9654C51.8916 38.7784 51.4573 38.5257 51.1027 38.2075C50.7539 37.8866 50.4893 37.5211 50.3087 37.1111C50.1325 36.7026 50.0421 36.2647 50.0376 35.7975C50.033 35.3303 50.1173 34.859 50.2903 34.3836L50.3838 34.1267C50.5818 33.5828 50.8402 33.1192 51.1592 32.7357C51.4782 32.3523 51.8359 32.0557 52.2324 31.846C52.6303 31.632 53.0524 31.5116 53.4986 31.4848C53.9449 31.4581 54.3928 31.5266 54.8424 31.6902C55.3392 31.871 55.7435 32.1128 56.0553 32.4154C56.3671 32.718 56.5897 33.0658 56.7231 33.4587C56.8624 33.8488 56.9164 34.2734 56.8851 34.7325C56.8581 35.1931 56.7534 35.6739 56.571 36.175L56.3302 36.8366L50.96 34.882L51.3645 33.7707L55.2059 35.1688L55.2503 35.0468C55.343 34.7653 55.3824 34.4838 55.3685 34.2023C55.3589 33.9224 55.2785 33.67 55.1275 33.4453C54.9765 33.2206 54.7297 33.0459 54.3871 32.9212C54.1302 32.8277 53.8808 32.8 53.639 32.8381C53.403 32.8735 53.1813 32.9698 52.9737 33.127C52.7661 33.2842 52.5729 33.4952 52.3942 33.7599C52.2212 34.0219 52.0693 34.3328 51.9383 34.6925L51.8448 34.9494C51.7341 35.2535 51.672 35.5509 51.6582 35.8418C51.6504 36.1299 51.6927 36.3999 51.7853 36.6519C51.8779 36.9038 52.0196 37.1275 52.2103 37.323C52.4026 37.5143 52.6465 37.6637 52.942 37.7712C53.3145 37.9068 53.6737 37.9527 54.0195 37.9088C54.3652 37.8649 54.695 37.7449 55.0089 37.5487L55.5372 38.6358C55.3078 38.7996 55.0365 38.9385 54.7235 39.0525C54.412 39.1622 54.0602 39.2161 53.6681 39.214C53.2803 39.2135 52.8594 39.1306 52.4055 38.9654ZM61.2047 40.393L64.2722 31.9652L65.8267 32.531L62.2355 42.3978L60.8287 41.8857L61.2047 40.393ZM57.3955 36.7879L57.4446 36.653C57.6363 36.1262 57.873 35.6692 58.1546 35.2819C58.4378 34.8902 58.754 34.581 59.1034 34.3541C59.4542 34.1229 59.8292 33.9854 60.2283 33.9415C60.629 33.8934 61.0413 33.9464 61.4653 34.1007C61.8849 34.2535 62.2236 34.4689 62.4813 34.747C62.739 35.0251 62.9238 35.3567 63.0358 35.7418C63.1494 36.1226 63.1962 36.547 63.1762 37.015C63.1578 37.4787 63.0836 37.9755 62.9538 38.5054L62.7972 38.9358C62.5607 39.4123 62.3013 39.8319 62.0189 40.1947C61.7365 40.5575 61.4294 40.8483 61.0976 41.067C60.7658 41.2857 60.4097 41.418 60.0293 41.4638C59.6532 41.5112 59.2531 41.4577 58.8291 41.3034C58.4095 41.1507 58.0624 40.925 57.788 40.6262C57.5179 40.3291 57.3227 39.9792 57.2025 39.5766C57.0823 39.1739 57.0381 38.7359 57.0698 38.2624C57.103 37.7847 57.2116 37.2932 57.3955 36.7879ZM58.9927 37.2164L58.9436 37.3513C58.8283 37.6682 58.7486 37.9738 58.7045 38.2682C58.6647 38.5641 58.6687 38.8395 58.7165 39.0946C58.7659 39.3453 58.8672 39.5665 59.0206 39.7581C59.1798 39.947 59.3985 40.0921 59.6769 40.1934C60.0281 40.3213 60.3452 40.3494 60.6283 40.2778C60.9114 40.2063 61.1647 40.0632 61.3882 39.8488C61.6176 39.6316 61.8151 39.3688 61.9807 39.0605L62.4039 37.8978C62.4701 37.6358 62.5023 37.3808 62.5004 37.1328C62.5029 36.8863 62.4673 36.6575 62.3938 36.4465C62.3218 36.2312 62.2037 36.0427 62.0394 35.881C61.881 35.7167 61.669 35.5862 61.4035 35.4896C61.1209 35.3867 60.8592 35.3594 60.6186 35.4076C60.378 35.4558 60.1552 35.5614 59.9504 35.7245C59.7498 35.8891 59.5689 36.0997 59.4076 36.3563C59.2464 36.6128 59.1081 36.8995 58.9927 37.2164Z" fill="#FF991F"/>
</svg>
