<svg width="84" height="86" viewBox="0 0 84 86" fill="none" xmlns="http://www.w3.org/2000/svg">
<path d="M64.4649 28.6739C52.5169 27.8246 45.5456 31.715 41.8529 34.9936C38.1399 31.6757 31.1095 27.8048 19.0432 28.6937C18.7667 28.7134 18.4901 28.7332 18.2334 28.7332L19.1107 21.8376C19.1786 21.3041 19.5351 20.8403 20.0345 20.6405C34.3988 14.8959 48.6167 14.7902 62.6877 20.7121C63.1741 20.9169 63.5194 21.3742 63.5872 21.8976L64.4649 28.6739Z" fill="#9E5CF2"/>
<path d="M78.8406 46.5275C74.6932 41.0375 68.0973 37.4829 60.6916 37.4829C52.871 37.4829 45.959 41.4522 41.8516 47.4558C37.7437 41.4522 30.8317 37.4829 23.0113 37.4829C15.6056 37.4829 9.00939 41.0376 4.84271 46.5275C-1.63489 39.5168 -0.173511 31.2421 1.10995 27.2924C1.36694 26.4828 2.43318 26.384 2.86785 27.1149C4.23039 29.4254 7.70616 32.743 16.4349 32.7628C17.3432 32.7628 18.3109 32.7232 19.3379 32.6444C36.8749 31.3211 41.8516 41.0375 41.8516 41.0375C41.8516 41.0375 46.828 31.3211 64.3648 32.6444C65.3917 32.7232 66.3594 32.7628 67.248 32.7628C75.9769 32.743 79.4527 29.4254 80.8155 27.1149C81.2499 26.384 82.3164 26.4828 82.5729 27.2924C83.8566 31.2421 85.3378 39.5366 78.8406 46.5275Z" fill="#9E5CF2"/>
<path d="M47.6372 78.9357C47.0051 81.1473 45.5832 83.7147 42.4828 85.8082C42.1075 86.0647 41.594 86.0647 41.2189 85.8082C38.1182 83.7147 36.6964 81.1473 36.0645 78.9357C38.3159 77.3557 40.2907 75.3611 41.851 73.09C43.411 75.3611 45.3858 77.3557 47.6372 78.9357Z" fill="#9E5CF2"/>
<path d="M60.692 41.4312C50.2844 41.4312 41.852 49.8636 41.852 60.2712C41.852 70.6787 50.2844 79.1112 60.692 79.1112C71.0995 79.1112 79.532 70.6787 79.532 60.2712C79.532 49.8636 71.0995 41.4312 60.692 41.4312ZM60.692 72.8708C53.7404 72.8708 48.0924 67.2227 48.0924 60.2712C48.0924 53.3196 53.7405 47.6716 60.692 47.6716C67.6238 47.6716 73.2916 53.3196 73.2916 60.2712C73.2916 67.2227 67.6238 72.8708 60.692 72.8708Z" fill="#9E5CF2"/>
<path d="M80.737 15.3248L75.622 17.0231V24.1328C75.622 25.2386 74.7334 26.1077 73.6471 26.1077C72.5611 26.1077 71.6722 25.2386 71.6722 24.1328V18.3266L67.0514 19.8668C66.5181 18.6229 65.4912 17.5959 64.227 17.0627C56.782 13.9423 49.1393 12.3427 41.4966 12.3427C33.9527 12.3427 26.2307 13.903 18.5685 16.9836C17.3241 17.4773 16.3366 18.4055 15.7443 19.5708L2.94727 15.3248C1.66357 14.9102 1.66357 12.9944 2.94727 12.5797L39.9957 0.296155C41.2003 -0.0987183 42.484 -0.0987183 43.6886 0.296155L80.737 12.5797C82.0205 12.9943 82.0205 14.9101 80.737 15.3248Z" fill="#9E5CF2"/>
<path d="M60.6918 51.6238C55.9125 51.6238 52.0419 55.4944 52.0419 60.2737C52.0419 65.0332 55.9125 68.9236 60.6918 68.9236C65.4512 68.9236 69.3416 65.0332 69.3416 60.2737C69.3416 55.4944 65.4512 51.6238 60.6918 51.6238ZM58.1663 60.2865C57.0508 60.2865 56.1427 59.3786 56.1427 58.2631C56.1427 58.2128 56.1447 58.1626 56.1483 58.1134C56.2252 57.0674 57.101 56.2398 58.1663 56.2398C59.2817 56.2398 60.1896 57.1477 60.1896 58.2631C60.1896 59.3603 59.2632 60.2865 58.1663 60.2865Z" fill="#9E5CF2"/>
<path d="M23.0137 51.6235C18.2347 51.6235 14.364 55.4942 14.364 60.2734C14.364 65.0329 18.2347 68.9233 23.0137 68.9233C27.7734 68.9233 31.6638 65.0329 31.6638 60.2734C31.6638 55.4942 27.7734 51.6235 23.0137 51.6235ZM20.4882 60.2862C19.3728 60.2862 18.4649 59.3783 18.4649 58.2629C18.4649 58.2125 18.4665 58.1624 18.4704 58.1132C18.5473 57.0672 19.4231 56.2396 20.4882 56.2396C21.6039 56.2396 22.5118 57.1475 22.5118 58.2629C22.5118 59.36 21.5853 60.2862 20.4882 60.2862Z" fill="#9E5CF2"/>
<path d="M23.0141 41.4312C12.6066 41.4312 4.17413 49.8636 4.17413 60.2712C4.17413 70.6787 12.6066 79.1112 23.0141 79.1112C33.4217 79.1112 41.8541 70.6787 41.8541 60.2712C41.8541 49.8636 33.4217 41.4312 23.0141 41.4312ZM23.0141 72.8708C16.0626 72.8708 10.4145 67.2227 10.4145 60.2712C10.4145 53.3196 16.0626 47.6716 23.0141 47.6716C29.9459 47.6716 35.6137 53.3196 35.6137 60.2712C35.6137 67.2227 29.9459 72.8708 23.0141 72.8708Z" fill="#9E5CF2"/>
</svg>
