<svg width="31" height="31" viewBox="0 0 31 31" fill="none" xmlns="http://www.w3.org/2000/svg">
<path d="M23.2372 10.3358C18.9304 10.0297 16.4175 11.4321 15.0864 12.6139C13.748 11.4179 11.2138 10.0226 6.86428 10.343C6.76461 10.3501 6.66493 10.3572 6.57239 10.3572L6.88862 7.8716C6.91309 7.67927 7.04159 7.51208 7.22161 7.44009C12.3995 5.36936 17.5245 5.33126 22.5966 7.4659C22.7719 7.5397 22.8964 7.70456 22.9208 7.89323L23.2372 10.3358Z" fill="#9E5CF2"/>
<path d="M28.4193 16.7717C26.9243 14.7927 24.5467 13.5114 21.8772 13.5114C19.0581 13.5114 16.5666 14.9422 15.086 17.1063C13.6053 14.9422 11.1137 13.5114 8.29478 13.5114C5.62527 13.5114 3.24757 14.7927 1.74563 16.7717C-0.58932 14.2446 -0.0625447 11.2618 0.400098 9.83807C0.492734 9.54627 0.877078 9.51064 1.03376 9.77411C1.52491 10.6069 2.7778 11.8028 5.9242 11.81C6.25163 11.81 6.60044 11.7957 6.97063 11.7673C13.2921 11.2903 15.086 14.7927 15.086 14.7927C15.086 14.7927 16.8799 11.2903 23.2013 11.7673C23.5714 11.7957 23.9202 11.81 24.2406 11.81C27.387 11.8028 28.6399 10.6069 29.1312 9.77411C29.2878 9.51064 29.6722 9.54627 29.7647 9.83807C30.2274 11.2618 30.7613 14.2517 28.4193 16.7717Z" fill="#9E5CF2"/>
<path d="M17.1715 28.4536C16.9437 29.2508 16.4312 30.1763 15.3136 30.9309C15.1783 31.0234 14.9932 31.0234 14.858 30.9309C13.7403 30.1763 13.2278 29.2508 13 28.4536C13.8115 27.8841 14.5234 27.1651 15.0858 26.3464C15.6481 27.1651 16.36 27.8841 17.1715 28.4536Z" fill="#9E5CF2"/>
<path d="M21.8773 14.9346C18.1258 14.9346 15.0862 17.9742 15.0862 21.7257C15.0862 25.4773 18.1258 28.5169 21.8773 28.5169C25.6289 28.5169 28.6685 25.4773 28.6685 21.7257C28.6685 17.9742 25.6289 14.9346 21.8773 14.9346ZM21.8773 26.2675C19.3716 26.2675 17.3356 24.2315 17.3356 21.7257C17.3356 19.22 19.3716 17.184 21.8773 17.184C24.376 17.184 26.4191 19.22 26.4191 21.7257C26.4191 24.2315 24.376 26.2675 21.8773 26.2675Z" fill="#9E5CF2"/>
<path d="M29.1029 5.52405L27.2591 6.13625V8.69904C27.2591 9.09765 26.9388 9.41091 26.5472 9.41091C26.1557 9.41091 25.8353 9.09765 25.8353 8.69904V6.60611L24.1697 7.1613C23.9775 6.71291 23.6073 6.34272 23.1516 6.15051C20.4679 5.0257 17.713 4.44913 14.9581 4.44913C12.2388 4.44913 9.45525 5.01153 6.69328 6.122C6.24471 6.29997 5.88877 6.63453 5.67527 7.05459L1.06238 5.52406C0.59965 5.3746 0.59965 4.68402 1.06238 4.53455L14.417 0.106754C14.8513 -0.0355845 15.314 -0.0355845 15.7482 0.106754L29.1029 4.53455C29.5655 4.68401 29.5655 5.37458 29.1029 5.52405Z" fill="#9E5CF2"/>
<path d="M21.8771 18.6084C20.1544 18.6084 18.7592 20.0036 18.7592 21.7264C18.7592 23.442 20.1544 24.8444 21.8771 24.8444C23.5928 24.8444 24.9951 23.442 24.9951 21.7264C24.9951 20.0036 23.5928 18.6084 21.8771 18.6084ZM20.9668 21.731C20.5647 21.731 20.2374 21.4037 20.2374 21.0017C20.2374 20.9835 20.2381 20.9654 20.2394 20.9477C20.2671 20.5706 20.5828 20.2723 20.9668 20.2723C21.3689 20.2723 21.6961 20.5996 21.6961 21.0017C21.6961 21.3971 21.3622 21.731 20.9668 21.731Z" fill="#9E5CF2"/>
<path d="M8.29551 18.6084C6.57285 18.6084 5.17761 20.0036 5.17761 21.7264C5.17761 23.442 6.57285 24.8444 8.29551 24.8444C10.0112 24.8444 11.4136 23.442 11.4136 21.7264C11.4136 20.0036 10.0112 18.6084 8.29551 18.6084ZM7.38516 21.731C6.98309 21.731 6.65583 21.4037 6.65583 21.0017C6.65583 20.9835 6.65643 20.9654 6.65783 20.9477C6.68555 20.5706 7.00125 20.2723 7.38516 20.2723C7.78733 20.2723 8.11459 20.5996 8.11459 21.0017C8.11459 21.3971 7.78064 21.731 7.38516 21.731Z" fill="#9E5CF2"/>
<path d="M8.29568 14.9346C4.54412 14.9346 1.50452 17.9742 1.50452 21.7257C1.50452 25.4773 4.54412 28.5169 8.29568 28.5169C12.0472 28.5169 15.0868 25.4773 15.0868 21.7257C15.0868 17.9742 12.0472 14.9346 8.29568 14.9346ZM8.29568 26.2675C5.78989 26.2675 3.75396 24.2315 3.75396 21.7257C3.75396 19.22 5.7899 17.184 8.29568 17.184C10.7943 17.184 12.8374 19.22 12.8374 21.7257C12.8374 24.2315 10.7943 26.2675 8.29568 26.2675Z" fill="#9E5CF2"/>
</svg>
