<svg width="74" height="76" viewBox="0 0 74 76" fill="none" xmlns="http://www.w3.org/2000/svg">
<g clip-path="url(#clip0_1_2149)">
<path d="M25.4245 68.2719C25.5924 68.3568 25.7585 68.4385 25.9232 68.5252L25.5236 69.0392C26.3946 68.7901 28.0816 69.5794 28.9962 69.766C30.0842 69.9836 31.1861 70.1931 32.3017 70.3947C33.6615 70.6245 36.7855 71.6668 37.9943 70.6348C39.3676 69.4613 38.1616 66.762 37.87 65.3743C37.5937 64.0622 37.3174 62.7502 37.0411 61.4381L36.5916 59.2916C36.5413 59.05 36.4896 58.8134 36.4412 58.575C36.4762 57.7091 36.2573 57.6241 35.7628 58.2901L34.6243 57.9875L34.8526 58.1771L34.5415 57.0204L35.0655 56.663C34.8688 56.6669 34.6774 56.728 34.5147 56.8389C34.3519 56.9497 34.225 57.1054 34.1494 57.2869C34.0739 57.4683 34.0529 57.6677 34.0892 57.8605C34.1255 58.0532 34.2175 58.231 34.3538 58.3721C34.5445 58.5864 34.7952 58.7389 35.0738 58.8101C35.3524 58.8812 35.6462 58.8678 35.9177 58.7715C36.1223 58.7194 36.3095 58.6136 36.4597 58.4652C36.6099 58.3167 36.7178 58.131 36.772 57.9273L36.8424 57.6372C36.8992 57.4339 36.9003 57.2193 36.8456 57.0159C36.7909 56.8124 36.6823 56.6275 36.5312 56.4806C35.3211 55.4878 33.7782 56.1249 33.8317 57.7474C33.8851 59.1416 34.4711 60.6639 34.7732 62.0329C35.1029 63.5847 35.4418 65.1327 35.7898 66.6768C36.0031 67.3771 36.161 68.0932 36.2621 68.8186C36.2637 69.2701 36.3654 69.2918 36.5625 68.8904C36.1214 68.8618 35.6821 68.8363 35.2218 68.8187C33.8854 68.7446 32.5479 68.6344 31.2095 68.4882C29.7109 68.3343 28.2181 68.139 26.7303 67.9154C26.0511 67.8128 25.5271 67.6333 25.0182 68.1639C24.9386 68.2484 24.8879 68.3557 24.8733 68.4705C24.8587 68.5854 24.881 68.7017 24.937 68.8028C24.9944 68.9216 25.086 69.0206 25.2 69.0873C25.3141 69.1539 25.4455 69.1852 25.5777 69.1771C25.6767 69.177 25.7731 69.1444 25.852 69.0843C25.9309 69.0243 25.9879 68.9401 26.0142 68.8448L26.05 68.7522C26.0691 68.6731 26.0648 68.5903 26.0378 68.5137C26.0107 68.4371 25.962 68.37 25.8976 68.3206C25.8331 68.2711 25.7556 68.2413 25.6744 68.2348C25.5932 68.2284 25.5118 68.2455 25.44 68.2841L25.4245 68.2719Z" fill="#5A69F2" fill-opacity="0.3"/>
<path d="M37.7329 69.3732C34.7229 66.5195 32.4782 62.9576 31.2027 59.0114C30.8477 57.9478 29.1379 58.3768 29.4907 59.4586C30.8609 63.689 33.4383 67.4249 36.9077 70.2091C37.4812 70.673 38.2938 69.9035 37.7329 69.3732Z" fill="#5A69F2" fill-opacity="0.3"/>
<path d="M28.9074 54.1164C28.4296 52.3069 28.0764 50.4665 27.8502 48.608C27.6785 47.0749 27.8294 45.4021 27.373 43.9276C27.1698 43.2668 26.1138 43.1661 25.9431 43.9074C25.611 45.465 26.0322 47.2389 26.338 48.7834C26.7178 50.6817 27.2295 52.5509 27.8693 54.3775C28.0865 54.9964 29.0377 54.7685 28.8696 54.1171L28.9074 54.1164Z" fill="#5A69F2" fill-opacity="0.3"/>
<path d="M26.5341 39.3122C26.1975 35.2907 26.4693 31.2393 27.3404 27.2942C27.5604 26.2411 25.9695 25.8022 25.7153 26.8623C24.7778 30.9992 24.7389 35.2854 25.6012 39.4322C25.7056 39.9512 26.582 39.8512 26.5359 39.3154L26.5341 39.3122Z" fill="#5A69F2" fill-opacity="0.3"/>
<path d="M29.0338 21.9314C29.838 20.8751 30.4033 19.648 31.0537 18.4945C31.558 17.6029 32.2927 15.6394 33.3212 15.3543C33.4438 15.3205 33.5573 15.2595 33.6532 15.1759C33.7492 15.0923 33.825 14.9883 33.8751 14.8715C33.9253 14.7548 33.9484 14.6284 33.9428 14.5017C33.9372 14.375 33.9031 14.2513 33.8429 14.1397L33.7404 13.9621C33.627 13.7787 33.4584 13.6358 33.2586 13.5538C33.0587 13.4718 32.8379 13.4548 32.6274 13.5053C31.2838 13.7228 30.7409 15.5036 30.2516 16.5684C29.5122 18.1412 28.636 19.8523 28.3782 21.5826C28.3285 21.9158 28.7715 22.3154 29.0421 21.9604L29.0338 21.9314Z" fill="#5A69F2" fill-opacity="0.3"/>
<path d="M36.8331 8.94168C38.1272 7.83931 39.4191 6.73545 40.7087 5.63008C41.7242 4.75619 43.0511 3.06828 44.289 2.67498C44.4235 2.63692 44.5477 2.569 44.6523 2.47633C44.757 2.38367 44.8393 2.26867 44.8932 2.13992C44.9472 2.01117 44.9712 1.87201 44.9637 1.73287C44.9561 1.59374 44.917 1.45823 44.8495 1.3365L44.7537 1.13385C44.6331 0.926803 44.4479 0.765018 44.2262 0.673148C44.0045 0.581278 43.7585 0.56436 43.5258 0.624971C42.1486 0.887275 41.0487 2.60061 40.1358 3.54207C38.7042 5.0142 37.2784 6.49417 35.8587 7.98199C35.238 8.62789 36.1612 9.49878 36.8363 8.93984L36.8331 8.94168Z" fill="#5A69F2" fill-opacity="0.3"/>
</g>
<defs>
<clipPath id="clip0_1_2149">
<rect width="51" height="58" fill="white" transform="translate(0 25.6108) rotate(-30)"/>
</clipPath>
</defs>
</svg>
