<svg width="85" height="56" viewBox="0 0 85 56" fill="none" xmlns="http://www.w3.org/2000/svg">
<g clip-path="url(#clip0_1_2101)">
<path d="M1.00567 32.4003C7.33002 36.8536 15.0455 40.1436 22.9177 38.8615C29.3404 37.816 35.232 33.6194 37.331 27.3635L35.671 27.5833C38.2906 31.2133 41.8692 34.0487 46.0074 35.7734C50.1457 37.4981 54.6811 38.0443 59.1077 37.3511C63.2489 36.6297 67.1334 34.8625 70.3905 32.218C74.4192 28.9899 76.6513 24.4511 79.3273 20.1599C79.9876 19.1132 78.3216 18.1393 77.6676 19.1877C75.2953 22.9785 73.3397 27.043 69.957 30.0711C67.0087 32.6855 63.424 34.4846 59.5587 35.2899C51.1648 37.0335 42.3672 33.4435 37.2483 26.6512C37.155 26.5019 37.0204 26.3826 36.8608 26.3077C36.7011 26.2327 36.5233 26.2053 36.3485 26.2287C36.1738 26.2521 36.0097 26.3253 35.8759 26.4396C35.7422 26.5539 35.6445 26.7043 35.5946 26.8728C33.6665 32.7464 27.8586 36.5102 21.8916 37.3376C14.6732 38.3415 7.48763 35.3291 1.54048 31.4937C0.968163 31.1242 0.466865 32.0064 1.00905 32.3878L1.00567 32.4003Z" fill="#CED2FC"/>
<path d="M76.9759 19.3083C72.977 19.5238 68.8854 20.6519 64.962 21.4572C63.8654 21.6824 64.1311 23.3819 65.222 23.3761C69.6618 23.3333 74.0623 22.557 78.2444 21.0787L77.0812 20.4085L78.3568 26.4203C78.7387 28.2117 78.8848 30.3275 79.7579 31.9438C79.8516 32.093 79.9908 32.2084 80.155 32.2729C80.3192 32.3375 80.4998 32.3479 80.6702 32.3026C80.8405 32.2573 80.9917 32.1587 81.1015 32.0213C81.2112 31.8839 81.2737 31.7149 81.2798 31.5392C81.4116 29.713 80.6483 27.6911 80.2584 25.9043L78.9465 19.9027C78.8771 19.6628 78.7171 19.4588 78.5001 19.3338C78.2832 19.2088 78.0262 19.1725 77.7833 19.2325C73.7573 20.6635 69.5178 21.4116 65.2408 21.4457L65.5008 23.3646C69.3358 22.4885 73.477 21.8227 77.1415 20.3846C77.6617 20.1773 77.6594 19.2926 76.9976 19.3276L76.9759 19.3083Z" fill="#CED2FC"/>
<path d="M64.7335 22.6477C67.3983 24.5263 70.0587 26.4128 72.7148 28.3069L76.5541 31.0621C77.7668 31.9467 78.9461 33.1035 80.3741 33.591C80.5121 33.6248 80.6569 33.618 80.791 33.5714C80.925 33.5248 81.0424 33.4403 81.1291 33.3282C81.2157 33.2162 81.2678 33.0815 81.2789 32.9404C81.2901 32.7992 81.2598 32.6579 81.1919 32.5334C80.3757 31.4013 79.1043 30.7085 77.9641 29.9038C76.5969 28.9439 75.2156 27.9868 73.8099 27.07C70.9984 25.2364 68.1209 23.5144 65.1772 21.9039C65.0783 21.8495 64.9622 21.8354 64.8533 21.8648C64.7444 21.8941 64.6513 21.9645 64.5937 22.0611C64.5361 22.1577 64.5185 22.2729 64.5446 22.3823C64.5707 22.4918 64.6384 22.5869 64.7335 22.6477Z" fill="#CED2FC"/>
</g>
<defs>
<clipPath id="clip0_1_2101">
<rect width="78" height="36" fill="white" transform="translate(9.41724) rotate(15.1645)"/>
</clipPath>
</defs>
</svg>
