<svg width="401" height="288" viewBox="0 0 401 288" fill="none" xmlns="http://www.w3.org/2000/svg">
<g clip-path="url(#clip0_1_1943)">
<path d="M498.992 307.561C475.843 293.822 451.895 279.618 421.82 279.618C391.745 279.618 367.796 293.812 344.637 307.561L343.868 306.253C367.158 292.413 391.319 278.097 421.84 278.097C452.36 278.097 476.461 292.413 499.812 306.253L498.992 307.561Z" fill="white" fill-opacity="0.5"/>
<path d="M188.733 307.561C165.575 293.822 141.636 279.618 111.561 279.618C81.486 279.618 57.5374 293.812 34.3787 307.561L33.6091 306.253C56.8995 292.413 81.0607 278.097 111.581 278.097C142.102 278.097 166.192 292.413 189.554 306.253L188.733 307.561Z" fill="white" fill-opacity="0.5"/>
<path d="M516.662 307.581C510.708 304.316 504.754 300.778 498.992 297.361C475.843 283.602 451.935 269.408 421.82 269.408C391.704 269.408 367.796 283.602 344.597 297.361C338.845 300.778 332.891 304.316 326.926 307.581L326.197 306.243C332.131 302.988 338.075 299.46 343.827 296.053C367.118 282.213 391.279 267.897 421.799 267.897C452.32 267.897 476.42 282.213 499.772 296.053C505.513 299.47 511.457 302.988 517.391 306.243L516.662 307.581Z" fill="white" fill-opacity="0.5"/>
<path d="M206.404 307.581C200.449 304.316 194.495 300.778 188.733 297.361C165.585 283.602 141.636 269.408 111.561 269.408C81.486 269.408 57.5374 283.602 34.3787 297.351C28.627 300.768 22.6727 304.306 16.7083 307.571L15.9792 306.232C21.9132 302.978 27.8574 299.449 33.6091 296.043C56.8995 282.203 81.0607 267.887 111.581 267.887C142.102 267.887 166.202 282.203 189.554 296.043C195.295 299.449 201.239 302.978 207.173 306.232L206.404 307.581Z" fill="white" fill-opacity="0.5"/>
<path d="M538.15 307.621C524.399 302.238 511.488 294.573 499.002 287.161C475.843 273.463 451.935 259.269 421.82 259.269C391.704 259.269 367.796 273.463 344.597 287.161C332.111 294.573 319.19 302.238 305.438 307.621L304.882 306.202C318.562 300.838 331.433 293.234 343.868 285.853C367.158 272.003 391.319 257.698 421.84 257.698C452.36 257.698 476.461 272.014 499.812 285.853C512.247 293.234 525.128 300.869 538.748 306.202L538.15 307.621Z" fill="white" fill-opacity="0.5"/>
<path d="M227.902 307.621C214.14 302.238 201.229 294.573 188.733 287.161C165.585 273.464 141.636 259.269 111.561 259.269C81.4861 259.269 57.5374 273.463 34.3787 287.212C21.974 294.522 9.14404 302.136 -4.51629 307.51L-5.06311 306.101C8.4757 300.768 21.2652 293.184 33.6091 285.823C56.8995 271.973 81.0608 257.667 111.581 257.667C142.102 257.667 166.202 271.983 189.554 285.823C201.989 293.204 214.869 300.839 228.489 306.172L227.902 307.621Z" fill="white" fill-opacity="0.5"/>
<path d="M266.685 305.117C236.185 305.117 212.064 290.801 188.713 276.961C165.564 263.223 141.616 249.008 111.541 249.008C81.4658 249.008 57.5172 263.203 34.3584 276.961C21.974 284.322 9.14404 291.937 -4.51629 297.31L-5.06311 295.891C8.4757 290.568 21.2652 282.984 33.6091 275.613C56.8995 261.763 81.0608 247.447 111.581 247.447C142.102 247.447 166.202 261.763 189.554 275.613C212.702 289.351 236.641 303.556 266.726 303.556C296.811 303.556 320.749 289.361 343.908 275.613C367.199 261.763 391.36 247.447 421.88 247.447V248.968C391.795 248.968 367.857 263.162 344.698 276.921C321.306 290.801 297.186 305.117 266.685 305.117Z" fill="white" fill-opacity="0.5"/>
<path d="M266.685 294.917C236.185 294.917 212.064 280.601 188.713 266.762C165.564 253.013 141.616 238.809 111.541 238.809C81.4658 238.809 57.5172 253.003 34.3584 266.762C21.974 274.123 9.14404 281.737 -4.51629 287.11L-5.06311 285.691C8.4757 280.368 21.2652 272.784 33.6091 265.413C56.8995 251.563 81.0608 237.247 111.581 237.247C142.102 237.247 166.202 251.563 189.554 265.413C212.702 279.151 236.641 293.356 266.726 293.356C296.811 293.356 320.749 279.162 343.908 265.413C367.199 251.563 391.36 237.247 421.88 237.247V238.768C391.795 238.768 367.857 252.963 344.698 266.721C321.306 280.561 297.186 294.917 266.685 294.917Z" fill="white" fill-opacity="0.5"/>
<path d="M266.685 284.718C236.185 284.718 212.064 270.402 188.713 256.562C165.564 242.814 141.616 228.609 111.541 228.609C81.4658 228.609 57.5172 242.803 34.3584 256.552C21.974 263.923 9.14404 271.537 -4.51629 276.911L-5.06311 275.491C8.4757 270.158 21.2652 262.584 33.6091 255.213C56.8995 241.374 81.0608 227.058 111.581 227.058C142.102 227.058 166.202 241.374 189.554 255.213C212.702 268.962 236.641 283.166 266.726 283.166C296.811 283.166 320.749 268.972 343.908 255.213C367.199 241.374 391.36 227.058 421.88 227.058V228.579C391.795 228.579 367.857 242.773 344.698 256.532C321.306 270.422 297.186 284.718 266.685 284.718Z" fill="white" fill-opacity="0.5"/>
<path d="M266.685 274.477C236.185 274.477 212.064 260.161 188.713 246.312C165.564 232.573 141.616 218.369 111.541 218.369C81.4658 218.369 57.5172 232.563 34.3584 246.312C21.974 253.713 9.14404 261.297 -4.51629 266.701L-5.06311 265.292C8.4757 259.958 21.2652 252.375 33.6091 245.014C56.8995 231.174 81.0608 216.858 111.581 216.858C142.102 216.858 166.202 231.174 189.554 245.014C212.702 258.752 236.641 272.967 266.726 272.967C296.811 272.967 320.749 258.772 343.908 245.014C367.199 231.174 391.36 216.858 421.88 216.858V218.379C391.795 218.379 367.857 232.573 344.698 246.322C321.306 260.202 297.186 274.477 266.685 274.477Z" fill="white" fill-opacity="0.5"/>
<path d="M266.685 264.338C236.185 264.338 212.064 250.022 188.713 236.173C165.564 222.434 141.616 208.23 111.541 208.23C81.4658 208.23 57.5172 222.424 34.3584 236.173C21.974 243.513 9.14404 251.158 -4.51629 256.501L-5.06311 255.092C8.4757 249.759 21.2652 242.175 33.6091 234.814C56.8995 220.974 81.0608 206.658 111.581 206.658C142.102 206.658 166.202 220.974 189.554 234.814C212.702 248.552 236.641 262.767 266.726 262.767C296.811 262.767 320.749 248.572 343.908 234.814C367.199 220.974 391.36 206.658 421.88 206.658V208.179C391.795 208.179 367.857 222.374 344.698 236.122C321.306 250.002 297.186 264.338 266.685 264.338Z" fill="white" fill-opacity="0.5"/>
<path d="M266.685 254.108C236.185 254.108 212.064 239.792 188.713 225.953C165.564 212.214 141.616 198 111.541 198C81.4658 198 57.5172 212.194 34.3584 225.953C21.974 233.313 9.14404 240.928 -4.51629 246.301L-5.06311 244.892C8.4757 239.559 21.2652 231.975 33.6091 224.614C56.8995 210.765 81.0608 196.448 111.581 196.448C142.102 196.448 166.202 210.765 189.554 224.614C212.702 238.353 236.641 252.557 266.726 252.557C296.811 252.557 320.749 238.363 343.908 224.614C367.199 210.765 391.36 196.448 421.88 196.448V197.969C391.795 197.969 367.857 212.164 344.698 225.922C321.306 239.792 297.186 254.108 266.685 254.108Z" fill="white" fill-opacity="0.5"/>
<path d="M266.685 243.909C236.185 243.909 212.064 229.593 188.713 215.753C165.564 202.015 141.616 187.8 111.541 187.8C81.4658 187.8 57.5172 201.994 34.3584 215.753C21.974 223.114 9.14404 230.728 -4.51629 236.102L-5.06311 234.682C8.4757 229.359 21.2652 221.775 33.6091 214.404C56.8995 200.555 81.0608 186.239 111.581 186.239C142.102 186.239 166.202 200.555 189.554 214.404C212.702 228.143 236.641 242.347 266.726 242.347C296.811 242.347 320.749 228.153 343.908 214.404C367.199 200.555 391.36 186.239 421.88 186.239V187.759C391.795 187.759 367.857 201.954 344.698 215.712C321.306 229.592 297.186 243.909 266.685 243.909Z" fill="white" fill-opacity="0.5"/>
<path d="M266.685 233.709C236.185 233.709 212.064 219.393 188.713 205.553C165.564 191.805 141.616 177.6 111.541 177.6C81.4658 177.6 57.5172 191.795 34.3584 205.553C21.974 212.914 9.14404 220.528 -4.51629 225.902L-5.06311 224.482C8.4757 219.149 21.2652 211.576 33.6091 204.205C56.8995 190.365 81.0608 176.049 111.581 176.049C142.102 176.049 166.202 190.365 189.554 204.205C212.702 217.953 236.641 232.158 266.726 232.158C296.811 232.158 320.749 217.963 343.908 204.205C367.199 190.365 391.36 176.049 421.88 176.049V177.57C391.795 177.57 367.857 191.764 344.698 205.523C321.306 219.393 297.186 233.709 266.685 233.709Z" fill="white" fill-opacity="0.5"/>
<path d="M266.685 223.509C236.185 223.509 212.064 209.193 188.713 195.343C165.564 181.605 141.616 167.401 111.541 167.401C81.4658 167.401 57.5374 181.605 34.3787 195.394C21.974 202.714 9.14404 210.329 -4.51629 215.672L-5.06311 214.252C8.4757 208.919 21.2652 201.335 33.6091 193.975C56.8995 180.135 81.0608 165.819 111.581 165.819C142.102 165.819 166.202 180.135 189.554 193.975C212.702 207.723 236.641 221.928 266.726 221.928C296.811 221.928 320.749 207.733 343.908 193.975C367.199 180.135 391.36 165.819 421.88 165.819V167.34C391.795 167.34 367.857 181.534 344.698 195.283C321.306 209.193 297.186 223.509 266.685 223.509Z" fill="white" fill-opacity="0.5"/>
<path d="M266.685 213.309C236.185 213.309 212.064 198.993 188.713 185.144C165.564 171.405 141.616 157.201 111.541 157.201C81.4658 157.201 57.5172 171.395 34.3584 185.144C21.974 192.504 9.14404 200.119 -4.51629 205.533L-5.06311 204.124C8.4757 198.791 21.2652 191.207 33.6091 183.846C56.8995 170.006 81.0608 155.69 111.581 155.69C142.102 155.69 166.202 170.006 189.554 183.846C212.702 197.584 236.641 211.799 266.726 211.799C296.811 211.799 320.749 197.604 343.908 183.846C367.199 170.006 391.36 155.69 421.88 155.69V157.211C391.795 157.211 367.857 171.405 344.698 185.154C321.306 198.993 297.186 213.309 266.685 213.309Z" fill="white" fill-opacity="0.5"/>
<path d="M266.685 203.11C236.185 203.11 212.064 188.794 188.713 174.944C165.564 161.206 141.616 147.001 111.541 147.001C81.4658 147.001 57.5172 161.196 34.3584 174.944C21.974 182.305 9.14404 189.919 -4.51629 195.293L-5.06311 193.883C8.4757 188.55 21.2652 180.966 33.6091 173.606C56.8995 159.756 81.0608 145.45 111.581 145.45C142.102 145.45 166.202 159.766 189.554 173.606C212.702 187.344 236.641 201.558 266.726 201.558C296.811 201.558 320.749 187.364 343.908 173.606C367.199 159.766 391.36 145.45 421.88 145.45V146.971C391.795 146.971 367.857 161.165 344.698 174.913C321.306 188.794 297.186 203.11 266.685 203.11Z" fill="white" fill-opacity="0.5"/>
<path d="M266.685 192.9C236.185 192.9 212.064 178.584 188.713 164.744C165.564 151.006 141.616 136.791 111.541 136.791C81.4658 136.791 57.5172 150.986 34.3584 164.744C21.974 172.075 9.14404 179.719 -4.51629 185.093L-5.06311 183.673C8.4757 178.351 21.2652 170.767 33.6091 163.396C56.8995 149.546 81.0608 135.23 111.581 135.23C142.102 135.23 166.202 149.546 189.554 163.396C212.662 177.144 236.6 191.338 266.685 191.338C296.77 191.338 320.709 177.144 343.868 163.396C367.158 149.546 391.319 135.23 421.84 135.23V136.751C391.755 136.751 367.816 150.945 344.658 164.704C321.306 178.584 297.186 192.9 266.685 192.9Z" fill="white" fill-opacity="0.5"/>
<path d="M266.685 182.7C236.185 182.7 212.064 168.384 188.713 154.544C165.564 140.806 141.616 126.592 111.541 126.592C81.4658 126.592 57.5172 140.786 34.3584 154.544C21.974 161.936 9.14404 169.52 -4.51629 174.893L-5.06311 173.474C8.4757 168.151 21.2652 160.567 33.6091 153.196C56.8995 139.346 81.0608 125.03 111.581 125.03C142.102 125.03 166.202 139.346 189.554 153.196C212.662 167.005 236.6 181.2 266.685 181.2C296.77 181.2 320.709 167.005 343.868 153.257C367.158 139.407 391.319 125.091 421.84 125.091V126.612C391.755 126.612 367.816 140.806 344.658 154.565C321.306 168.384 297.186 182.7 266.685 182.7Z" fill="white" fill-opacity="0.5"/>
<path d="M266.685 172.5C236.185 172.5 212.064 158.184 188.713 144.335C165.564 130.596 141.616 116.392 111.541 116.392C81.4658 116.392 57.5172 130.586 34.3584 144.335C21.974 151.706 9.14404 159.32 -4.51629 164.693L-5.06311 163.274C8.4757 157.941 21.2652 150.367 33.6091 142.996C56.8995 129.157 81.0608 114.841 111.581 114.841C142.102 114.841 166.202 129.157 189.554 142.996C212.702 156.745 236.641 170.949 266.726 170.949C296.811 170.949 320.749 156.755 343.908 142.996C367.199 129.157 391.36 114.841 421.88 114.841V116.361C391.795 116.361 367.857 130.556 344.698 144.304C321.306 158.184 297.186 172.5 266.685 172.5Z" fill="white" fill-opacity="0.5"/>
<path d="M266.685 162.301C236.185 162.301 212.064 147.985 188.713 134.135C165.585 120.366 141.636 106.172 111.561 106.172C81.4861 106.172 57.5374 120.366 34.3787 134.115C21.974 141.506 9.14404 149.11 -4.51629 154.494L-5.06311 153.074C8.4757 147.741 21.2652 140.157 33.6091 132.796C56.8995 118.957 81.0608 104.641 111.581 104.641C142.102 104.641 166.202 118.957 189.554 132.796C212.702 146.535 236.641 160.749 266.726 160.749C296.811 160.749 320.749 146.555 343.908 132.796C367.199 118.957 391.36 104.641 421.88 104.641V106.172C391.795 106.172 367.857 120.366 344.698 134.115C321.306 147.985 297.186 162.301 266.685 162.301Z" fill="white" fill-opacity="0.5"/>
<path d="M266.685 152.101C236.185 152.101 212.064 137.785 188.713 123.935C165.585 110.227 141.636 96.0329 111.561 96.0329C81.4861 96.0329 57.5374 110.227 34.3787 123.976C21.974 131.296 9.14404 138.91 -4.51629 144.284L-5.06311 142.875C8.4757 137.542 21.2652 129.958 33.6091 122.597C56.8995 108.757 81.0608 94.4411 111.581 94.4411C142.102 94.4411 166.202 108.757 189.554 122.597C212.702 136.335 236.641 150.55 266.726 150.55C296.811 150.55 320.749 136.355 343.908 122.597C367.199 108.757 391.36 94.4411 421.88 94.4411V96.0329C391.795 96.0329 367.857 110.227 344.698 123.976C321.306 137.785 297.186 152.101 266.685 152.101Z" fill="white" fill-opacity="0.5"/>
<path d="M266.685 141.891C236.185 141.891 212.064 127.585 188.713 113.735C165.564 99.9972 141.616 85.7825 111.541 85.7825C81.4658 85.7825 57.5172 99.977 34.3584 113.735C21.974 121.096 9.14404 128.711 -4.51629 134.084L-5.06311 132.675C8.4757 127.342 21.2652 119.758 33.6091 112.397C56.8995 98.5474 81.0608 84.2313 111.581 84.2313C142.102 84.2313 166.202 98.5474 189.554 112.397C212.702 126.135 236.641 140.34 266.726 140.34C296.811 140.34 320.749 126.145 343.908 112.397C367.199 98.5474 391.36 84.2313 421.88 84.2313V85.7521C391.795 85.7521 367.857 99.9465 344.698 113.705C321.306 127.585 297.186 141.891 266.685 141.891Z" fill="white" fill-opacity="0.5"/>
<path d="M266.685 131.691C236.185 131.691 212.064 117.375 188.713 103.536C165.564 89.7975 141.616 75.5828 111.541 75.5828C81.4658 75.5828 57.5172 89.7772 34.3584 103.536C21.974 110.897 9.14404 118.511 -4.51629 123.884L-5.06311 122.465C8.4757 117.142 21.2652 109.558 33.6091 102.187C56.8995 88.3375 81.0608 74.0214 111.581 74.0214C142.102 74.0214 166.202 88.3375 189.554 102.187C212.702 115.925 236.641 130.13 266.726 130.13C296.811 130.13 320.749 115.936 343.908 102.187C367.199 88.3375 391.36 74.0214 421.88 74.0214V75.5422C391.795 75.5422 367.857 89.7366 344.698 103.495C321.306 117.375 297.186 131.691 266.685 131.691Z" fill="white" fill-opacity="0.5"/>
<path d="M266.685 121.492C236.185 121.492 212.064 107.176 188.713 93.336C165.564 79.5876 141.616 65.383 111.541 65.383C81.4658 65.383 57.5172 79.5775 34.3584 93.336C21.974 100.697 9.14404 108.311 -4.51629 113.685L-5.06311 112.255C8.4757 106.932 21.2652 99.3483 33.6091 91.9773C56.8995 78.1378 81.0608 63.8217 111.581 63.8217C142.102 63.8217 166.202 78.1378 189.554 91.9875C212.702 105.726 236.641 119.93 266.726 119.93C296.811 119.93 320.749 105.736 343.908 91.9875C367.199 78.1378 391.36 63.8217 421.88 63.8217V65.3425C391.795 65.3425 367.857 79.5369 344.698 93.2954C321.306 107.186 297.186 121.492 266.685 121.492Z" fill="white" fill-opacity="0.5"/>
<path d="M266.685 111.292C236.185 111.292 212.064 96.9758 188.713 83.1261C165.564 69.3879 141.616 55.1834 111.541 55.1834C81.4658 55.1834 57.5172 69.3778 34.3584 83.1261C21.974 90.4971 9.14404 98.1114 -4.51629 103.485L-5.06311 102.116C8.4757 96.7832 21.2652 89.2095 33.6091 81.8385C56.8995 67.9989 81.0608 53.6828 111.581 53.6828C142.102 53.6828 166.202 67.9989 189.554 81.8385C212.702 95.5868 236.641 109.791 266.726 109.791C296.811 109.791 320.749 95.597 343.908 81.8385C367.199 67.9989 391.36 53.6828 421.88 53.6828V55.2036C391.795 55.2036 367.857 69.3981 344.698 83.1464C321.306 96.9759 297.186 111.292 266.685 111.292Z" fill="white" fill-opacity="0.5"/>
<path d="M266.685 101.102C236.185 101.102 212.064 86.7863 188.713 72.9365C165.564 59.1983 141.616 44.9938 111.541 44.9938C81.4658 44.9938 57.5172 59.1882 34.3584 72.9365C21.974 80.2872 9.14404 87.9218 -4.51629 93.2752L-5.06311 91.8658C8.4757 86.5328 21.2652 78.9489 33.6091 71.5881C56.8995 57.7485 81.0608 43.4324 111.581 43.4324C142.102 43.4324 166.202 57.7485 189.554 71.5881C212.702 85.3263 236.641 99.541 266.726 99.541C296.811 99.541 320.749 85.3465 343.908 71.5881C367.199 57.7485 391.36 43.4324 421.88 43.4324V44.9532C391.795 44.9532 367.857 59.1477 344.698 72.896C321.306 86.7761 297.186 101.102 266.685 101.102Z" fill="white" fill-opacity="0.5"/>
<path d="M266.685 90.8925C236.185 90.8925 212.064 76.5764 188.713 62.7267C165.564 48.9885 141.616 34.7839 111.541 34.7839C81.4658 34.7839 57.5172 48.9784 34.3584 62.7267C21.974 70.0875 9.14404 77.7018 -4.51629 83.0754L-5.06311 81.6661C8.4757 76.3331 21.2652 68.7492 33.6091 61.3884C56.8995 47.5488 81.0608 33.2327 111.581 33.2327C142.102 33.2327 166.202 47.5488 189.554 61.3884C212.702 75.1266 236.641 89.3413 266.726 89.3413C296.811 89.3413 320.749 75.1468 343.908 61.3884C367.199 47.5488 391.36 33.2327 421.88 33.2327V34.7535C391.795 34.7535 367.857 48.9479 344.698 62.6963C321.306 76.5764 297.186 90.8925 266.685 90.8925Z" fill="white" fill-opacity="0.5"/>
<path d="M266.685 80.6826C236.185 80.6826 212.064 66.3665 188.713 52.5269C165.564 38.7887 141.616 24.574 111.541 24.574C81.4658 24.574 57.5172 38.7685 34.3584 52.5269C21.974 59.8878 9.14404 67.5021 -4.51629 72.8757L-5.06311 71.4664C8.4757 66.1333 21.2652 58.5494 33.6091 51.1886C56.8995 37.3389 81.0608 23.0228 111.581 23.0228C142.102 23.0228 166.202 37.3389 189.554 51.1886C212.702 64.9268 236.641 79.1314 266.726 79.1314C296.811 79.1314 320.749 64.9369 343.908 51.1886C367.199 37.3389 391.36 23.0228 421.88 23.0228V24.5436C391.795 24.5436 367.857 38.738 344.698 52.4965C321.306 66.3665 297.186 80.6826 266.685 80.6826Z" fill="white" fill-opacity="0.5"/>
<path d="M266.685 70.4829C236.185 70.4829 212.064 56.1668 188.713 42.3272C165.564 28.589 141.616 14.3743 111.541 14.3743C81.4658 14.3743 57.5374 28.589 34.3787 42.2968C21.974 49.6881 9.14404 57.3024 -4.51629 62.676L-5.06311 61.2565C8.4757 55.9336 21.2652 48.3497 33.6091 40.9788C56.8995 27.129 81.0608 12.8129 111.581 12.8129C142.102 12.8129 166.202 27.129 189.554 40.9788C212.702 54.717 236.641 68.9215 266.726 68.9215C296.811 68.9215 320.749 54.7271 343.908 40.9788C367.199 27.129 391.36 12.8129 421.88 12.8129V14.3338C391.795 14.3338 367.857 28.5282 344.698 42.2867C321.306 56.1668 297.186 70.4829 266.685 70.4829Z" fill="white" fill-opacity="0.5"/>
<path d="M266.685 60.2832C236.185 60.2832 212.064 45.9671 188.713 32.1275C165.585 18.3792 141.636 4.17458 111.561 4.17458C81.4861 4.17458 57.5374 18.3792 34.3787 32.1579C21.974 39.4883 9.14404 47.1026 -4.51629 52.4357L-5.06311 51.0162C8.4757 45.6933 21.2652 38.1094 33.6091 30.7385C56.94 16.9496 81.0608 2.65375 111.561 2.65375C142.061 2.65375 166.182 16.9699 189.533 30.8196C212.682 44.5578 236.62 58.7624 266.706 58.7624C296.791 58.7624 320.729 44.5679 343.888 30.8196C367.178 16.9699 391.34 2.65375 421.86 2.65375V4.17458C391.775 4.17458 367.836 18.369 344.678 32.1275C321.306 45.9671 297.186 60.2832 266.685 60.2832Z" fill="white" fill-opacity="0.5"/>
<path d="M266.685 50.0835C236.185 50.0835 212.064 35.7674 188.713 21.9177C165.585 8.17946 141.636 -6.02512 111.561 -6.02512C81.4861 -6.02512 57.5374 8.16933 34.3787 21.9177C21.974 29.2886 9.14404 36.9029 -4.51629 42.2968L-5.06311 40.8774C8.4757 35.5443 21.2652 27.9706 33.6091 20.5996C56.8995 6.76002 81.0608 -7.55609 111.581 -7.55609C142.102 -7.55609 166.202 6.76002 189.554 20.5996C212.702 34.3479 236.641 48.5525 266.726 48.5525C296.811 48.5525 320.749 34.3581 343.908 20.5996C367.199 6.76002 391.36 -7.55609 421.88 -7.55609V-6.03526C391.795 -6.03526 367.857 8.15919 344.698 21.9075C321.306 35.7674 297.186 50.0835 266.685 50.0835Z" fill="white" fill-opacity="0.5"/>
<path d="M266.685 39.8837C236.185 39.8837 212.064 25.5676 188.713 11.7179C165.585 -2.02029 141.636 -16.2249 111.561 -16.2249C81.4861 -16.2249 57.5374 -2.02029 34.3787 11.7179C21.974 19.0787 9.14404 26.693 -4.51629 32.0667L-5.06311 30.6573C8.4757 25.3243 21.2652 17.7404 33.6091 10.3796C56.8995 -3.46001 81.0608 -17.7761 111.581 -17.7761C142.102 -17.7761 166.202 -3.46001 189.554 10.3796C212.702 24.1178 236.641 38.3325 266.726 38.3325C296.811 38.3325 320.749 24.138 343.908 10.3796C367.199 -3.46001 391.36 -17.7761 421.88 -17.7761V-16.2553C391.795 -16.2553 367.857 -2.06085 344.698 11.6875C321.306 25.5676 297.186 39.8837 266.685 39.8837Z" fill="white" fill-opacity="0.5"/>
<path d="M266.685 29.684C236.185 29.684 212.064 15.3578 188.713 1.5182C176.298 -5.86292 163.438 -13.4671 149.798 -18.8306L150.345 -20.25C164.106 -14.8662 177.017 -7.20125 189.503 0.210279C212.662 13.9079 236.6 28.1632 266.685 28.1632C296.77 28.1632 320.709 13.9688 343.868 0.210279C356.353 -7.20125 369.264 -14.8662 383.077 -20.25L383.633 -18.8306C369.912 -13.4671 357.072 -5.86292 344.597 1.5182C321.306 15.3679 297.186 29.684 266.685 29.684Z" fill="white" fill-opacity="0.5"/>
<path d="M-4.51629 21.8669L-5.06311 20.4576C8.4757 15.1246 21.2652 7.5407 33.6091 0.179865C45.953 -7.18097 59.0361 -14.8662 72.7673 -20.25L73.3243 -18.8306C59.6741 -13.4671 46.8137 -5.86292 34.3787 1.5182C21.9436 8.89931 9.14404 16.4933 -4.51629 21.8669Z" fill="white" fill-opacity="0.5"/>
<path d="M266.685 19.4741C236.185 19.4741 212.064 5.15802 188.713 -8.68156C182.971 -12.0984 177.027 -15.6166 171.083 -18.8204L171.812 -20.1588C177.777 -16.8941 183.731 -13.3556 189.493 -9.93878C212.662 3.769 236.6 17.9634 266.685 17.9634C296.77 17.9634 320.709 3.769 343.868 -9.98947C349.619 -13.4063 355.574 -16.9448 361.538 -20.2095L362.267 -18.8711C356.323 -15.6166 350.389 -12.0882 344.637 -8.73225C321.306 5.15803 297.186 19.4741 266.685 19.4741Z" fill="white" fill-opacity="0.5"/>
<path d="M-4.51629 11.6672L-5.06311 10.2478C8.4757 4.92486 21.2652 -2.65903 33.599 -10.03C39.3608 -13.4468 45.315 -16.9853 51.2794 -20.25L52.0085 -18.9117C46.0644 -15.6571 40.1203 -12.1287 34.3787 -8.77278C21.974 -1.30042 9.14404 6.29361 -4.51629 11.6672Z" fill="white" fill-opacity="0.5"/>
<path d="M266.685 9.27446C236.185 9.27446 212.064 -5.04165 188.713 -18.8812L189.493 -20.1891C212.641 -6.45095 236.58 7.75363 266.665 7.75363C296.75 7.75363 320.689 -6.44081 343.837 -20.1891L344.617 -18.8812C321.306 -5.04165 297.186 9.27446 266.685 9.27446Z" fill="white" fill-opacity="0.5"/>
<path d="M-4.51629 1.46748L-5.06311 0.0480404C8.46558 -5.27488 21.2652 -12.8486 33.5888 -20.2297L34.3787 -18.932C21.9639 -11.5103 9.13391 -3.90613 -4.51629 1.46748Z" fill="white" fill-opacity="0.5"/>
</g>
<defs>
<clipPath id="clip0_1_1943">
<rect width="401" height="292" fill="white" transform="translate(0 -2)"/>
</clipPath>
</defs>
</svg>
